Coordinates
version=1
nRows=19
nColumns=36
inDegrees=yes

Units are S.I. units (second, meters, Newtons, ...)
If the header above contains a line with 'inDegrees', this indicates whether rotational values are in degrees (yes) or radians (no).

endheader
time	pelvis_tilt	pelvis_list	pelvis_rotation	pelvis_tx	pelvis_ty	pelvis_tz	hip_flexion_r	hip_adduction_r	hip_rotation_r	knee_angle_r	knee_angle_r_beta	ankle_angle_r	subtalar_angle_r	mtp_angle_r	hip_flexion_l	hip_adduction_l	hip_rotation_l	knee_angle_l	knee_angle_l_beta	ankle_angle_l	subtalar_angle_l	mtp_angle_l	lumbar_extension	lumbar_bending	lumbar_rotation	arm_flex_r	arm_add_r	arm_rot_r	elbow_flex_r	pro_sup_r	arm_flex_l	arm_add_l	arm_rot_l	elbow_flex_l	pro_sup_l
      0.00000000	     -8.42929631	      3.16351866	     -7.15141976	      0.70301593	      1.28513587	      0.08414036	      5.41325097	     -5.93905652	     -0.48601101	      0.46571328	      0.00812823	      4.50072480	     -6.84772132	     -5.42761170	      7.60127706	     -1.38530969	     -5.07862404	      4.26785086	      0.07448805	      6.71300543	      3.53961974	     -5.42761170	      6.70700875	     -3.69323027	      0.57186868	     -0.49820168	    -10.60439733	      1.96604608	     18.89030152	     93.15591686	     -1.18377767	    -13.36569469	      1.89263442	     18.41371198	     91.01119231
      0.01666670	     -8.37396818	      3.29944204	     -8.65381648	      0.70180214	      1.28456714	      0.08546005	      5.60409678	     -6.11511636	      0.23566809	      0.37282769	      0.00650707	      5.05833962	     -5.86482033	     -6.21317032	      7.04588201	     -1.34196411	     -5.47073094	      3.36398869	      0.05871268	      6.45557754	      3.27663803	     -6.21317032	      7.04120890	     -3.67392619	      1.31092700	      0.84128002	    -10.44951349	      3.03480260	     16.23954855	     97.15631304	     -1.10095033	    -12.75062007	      1.23820323	     15.91714772	     94.92033816
      0.03333330	     -7.91139743	      2.84360143	     -8.76785959	      0.70675203	      1.28647772	      0.08910171	      4.90519082	     -5.66619229	      0.56189132	      0.37326215	      0.00651465	      5.46128422	     -6.46534021	     -6.25142355	      5.96604518	     -1.74950847	     -5.09654200	      2.56720159	      0.04480612	      6.90148012	      3.63459857	     -6.25142355	      6.55029355	     -3.24310120	      0.79550347	      1.31985145	    -10.37487152	      3.47509262	     15.86259944	     97.52939892	     -0.72551769	    -12.46238665	      1.54683425	     14.55320771	     95.29741885
      0.05000000	     -7.61695091	      2.57033481	     -8.88649739	      0.70589517	      1.28648218	      0.08881965	      4.56616775	     -5.44174928	      0.16282995	      0.40804791	      0.00712178	      5.79666033	     -6.13893881	     -6.48773660	      5.31360127	     -1.91865094	     -5.31879696	      2.31037203	      0.04032360	      7.51722679	      4.01410710	     -6.48773660	      6.26915234	     -2.93135217	      0.61160869	      1.90866113	    -10.57583155	      6.08053254	     15.55044981	     97.93257397	     -0.35984505	    -12.40564296	      3.33157695	     13.50323592	     95.70988450
      0.06666670	     -7.37908735	      2.45487980	     -8.83865377	      0.70511514	      1.28402756	      0.08848060	      4.25739715	     -5.36991513	      0.11045208	      0.46320040	      0.00808437	      6.42708223	     -5.89793679	     -6.72775107	      4.72842862	     -1.89720360	     -5.06589511	      2.11009835	      0.03682816	      7.74820207	      4.04203068	     -6.72775107	      5.95716723	     -2.84520644	      0.41264010	      2.23885086	    -10.55803459	      7.34919744	     15.48718415	     97.60687780	     -0.18364583	    -12.41436603	      4.13188084	     13.14013895	     95.98944624
      0.08333330	     -7.41031824	      2.46541333	     -8.83991520	      0.70468025	      1.28410478	      0.08855549	      4.29216174	     -5.37578901	      0.15224466	      0.52704173	      0.00919861	      6.60878313	     -5.97216210	     -6.72914125	      4.61225400	     -1.84138313	     -4.90879874	      2.00588186	      0.03500924	      7.93951422	      4.10584167	     -6.72914125	      6.03269757	     -2.85066598	      0.42608225	      2.36764044	    -10.35021891	      7.37298680	     15.61482279	     97.62127279	     -0.08890813	    -12.37397253	      4.13987416	     13.21391192	     96.01584187
      0.10000000	     -7.43407602	      2.44215969	     -8.71934497	      0.69829205	      1.28428738	      0.09109115	      4.36714678	     -5.31693398	      0.10403943	      0.58838944	      0.01026933	      6.75314018	     -6.07908690	     -6.72996609	      4.60577138	     -1.87119993	     -4.88826217	      1.94096806	      0.03387628	      8.05528297	      4.12124630	     -6.72996609	      6.01890165	     -2.89587824	      0.45217401	      2.48388323	    -10.19082838	      7.40038578	     15.73058495	     97.63221554	      0.00364657	    -12.42125733	      4.14544186	     13.28767317	     96.03361992
      0.11666670	     -7.28977511	      2.45305397	     -8.60939936	      0.69824972	      1.28466553	      0.09121855	      4.28953234	     -5.32632565	      0.09169153	      0.75673105	      0.01320745	      6.87001355	     -6.87401852	     -7.23895361	      4.48581405	     -1.86189177	     -4.94703774	      1.98106331	      0.03457608	      8.40762603	      4.71977658	     -7.23895361	      5.49845604	     -3.03390012	      0.21756976	      2.39687098	    -10.50655174	     11.10237705	     17.14903917	     95.27840807	     -0.32185006	    -13.00146407	      7.02062236	     14.92969475	     95.31039412
      0.13333330	     -7.30190348	      2.45121118	     -8.41624424	      0.69824305	      1.28458894	      0.09121215	      4.37143032	     -5.29214655	     -0.26251924	      0.88775155	      0.01549419	      6.89540249	     -7.14257462	     -7.42884824	      4.58477240	     -1.85751272	     -5.02180485	      1.98055806	      0.03456726	      8.43307818	      4.79664550	     -7.42884824	      5.25978413	     -3.14584851	      0.28654482	      2.16439297	    -10.15816680	      8.58362985	     17.73142728	     98.03719918	     -0.06843247	    -12.89483893	      4.10509403	     15.35847029	     99.98556230
      0.15000000	     -7.23457736	      2.43671901	     -8.30392816	      0.69806465	      1.28191037	      0.09138708	      4.40967617	     -5.27202868	     -0.48987473	      1.10255281	      0.01924318	      6.95135373	     -7.41644821	     -7.47801031	      4.55903090	     -1.83535303	     -5.09570574	      1.92053648	      0.03351969	      8.46455965	      4.86907070	     -7.47801031	      4.92056817	     -3.16831471	      0.12790563	      2.15557647	    -10.09535441	      8.90471938	     18.20182430	     97.85191669	      0.08658774	    -13.01089821	      4.13920381	     16.10553058	    100.31329596
      0.16666670	     -7.05892630	      2.36832675	     -8.14323351	      0.69821040	      1.28482811	      0.09113481	      4.34434225	     -5.22148730	     -0.77036554	      1.41092419	      0.02462527	      7.13726686	     -7.54476454	     -7.49361583	      4.40879512	     -1.82537665	     -5.03658271	      1.91162052	      0.03336407	      8.59705206	      4.89523588	     -7.49361583	      4.52496151	     -3.16763184	      0.13845480	      2.17923608	    -10.15762029	     10.17120478	     18.40173012	     96.80887706	      0.24884036	    -13.16096435	      5.28583246	     16.82765482	     99.54945726
      0.18333330	     -6.86406605	      2.29712341	     -8.01552281	      0.69807301	      1.28517873	      0.09117013	      4.32204028	     -5.15969161	     -1.01179864	      1.85578066	      0.03238948	      7.31329440	     -7.62524033	     -7.49685836	      4.25988652	     -1.82317957	     -4.97019694	      1.91898667	      0.03349264	      8.57615782	      4.81124165	     -7.49685836	      4.10448176	     -3.15455520	      0.21996054	      2.04006239	    -10.06181087	      9.28721654	     18.79343452	     98.06129805	      0.60452694	    -13.01918447	      4.27050187	     17.13734413	    100.72224421
      0.20000000	     -6.70828382	      2.26770062	     -7.90169748	      0.69748346	      1.28246100	      0.09129066	      4.38687993	     -5.15400559	     -1.32849671	      2.30282834	      0.04019194	      7.42994498	     -7.95717147	     -7.49768876	      4.21032112	     -1.78095414	     -5.09025977	      1.99563448	      0.03483039	      8.68762887	      4.92992582	     -7.49768876	      3.71327330	     -3.18511240	      0.14411109	      2.13990257	     -9.99899552	     10.32575678	     18.66069588	     94.66546251	      0.92871816	    -13.02073145	      5.03986390	     17.21329430	     97.20438764
      0.21666670	     -6.49081887	      2.19249290	     -7.78271618	      0.70352138	      1.28303331	      0.09499683	      4.26461558	     -5.09419956	     -1.71294353	      2.71007205	      0.04729968	      7.52342955	     -8.13319999	     -7.49770789	      3.99498246	     -1.78110254	     -5.01660942	      2.01211238	      0.03511799	      8.62871843	      4.84121447	     -7.49770789	      3.38931524	     -3.15581082	      0.11897092	      1.99187474	     -9.98593267	     10.42239830	     18.63019917	     94.81917660	      1.23309735	    -12.95812174	      5.09196650	     17.43845483	     97.35304506
      0.23333330	     -6.07700735	      2.12079010	     -7.76657174	      0.70288027	      1.28343665	      0.09480059	      3.89907571	     -5.05992974	     -2.08975280	      2.99058103	      0.05219549	      7.81046056	     -7.97916377	     -7.49835892	      3.53129893	     -1.76385930	     -5.03533934	      1.93528331	      0.03377707	      8.61199225	      4.60784373	     -7.49835892	      2.80904236	     -3.15047533	      0.24025900	      1.94603505	    -10.11344064	     11.59292012	     18.61617362	     96.02978405	      1.63002122	    -13.12220208	      6.75003427	     17.65579424	     98.59511141
      0.25000000	     -5.85740688	      2.08049654	     -7.69602845	      0.70291895	      1.28671924	      0.09458412	      3.76564738	     -5.03773397	     -2.37514290	      3.35442070	      0.05854569	      8.00555628	     -7.94330711	     -7.49935426	      3.23468187	     -1.73752320	     -4.87245529	      1.83436029	      0.03201563	      8.46852426	      4.36031703	     -7.49935426	      2.52423347	     -3.17009548	      0.27926101	      1.76472964	     -9.85261602	      9.84710338	     18.25008354	     98.01161099	      2.07459326	    -12.91966202	      5.71581963	     17.57200090	    100.52662869
      0.26666670	     -5.58522568	      2.02089153	     -7.74648938	      0.70230234	      1.28680140	      0.09447668	      3.57489013	     -4.99327573	     -2.63026385	      3.64746351	      0.06366025	      8.16109737	     -7.94352874	     -7.49966603	      2.88605274	     -1.74428394	     -5.04402306	      1.79350333	      0.03130254	      8.56775656	      4.49884842	     -7.49966603	      2.19997529	     -3.15225802	      0.27403212	      1.65636435	     -9.72853922	      8.99586605	     17.81590843	     98.88582068	      2.51434265	    -12.73492729	      5.01456150	     17.46653054	    101.24200059
      0.28333330	     -5.32409312	      1.96922029	     -7.75013153	      0.70196405	      1.28714504	      0.09447333	      3.40056384	     -4.96787401	     -2.80755148	      3.96013893	      0.06911746	      8.44930621	     -7.78880236	     -7.49972939	      2.51938003	     -1.75347239	     -5.12103565	      1.74207806	      0.03040500	      8.58577932	      4.68950548	     -7.49972939	      1.87437420	     -3.14147982	      0.23347723	      1.71086809	     -9.64745536	      9.46201541	     17.18064427	     96.47919382	      2.83406261	    -12.65190852	      5.34847445	     17.20290167	     98.68200383
      0.30000000	     -5.11085327	      1.93519686	     -7.69614431	      0.70173113	      1.29008157	      0.09431116	      3.24647610	     -4.96083315	     -2.99130465	      4.20225466	      0.07334318	      8.63167021	     -7.74504506	     -7.49993098	      2.22635435	     -1.74172375	     -4.77576448	      1.71419841	      0.02991841	      8.47099144	      4.30962276	     -7.49993098	      1.60845886	     -3.15621733	      0.35984696	      1.45940423	     -9.53262149	      8.20112340	     16.86328358	     99.04487164	      3.42433410	    -12.62214047	      5.70704065	     16.89637563	    101.37434471
